<mxfile host="app.diagrams.net" modified="2020-11-15T15:50:10.207Z" agent="5.0 (Windows)" etag="AaBs5Gxs2nkMzoe9UbQt" version="13.8.0" type="github">
  <diagram id="Xfvj_RXTSbmuPJvJcs9L" name="Page-1">
    <mxGraphModel dx="981" dy="1728" grid="1" gridSize="10" guides="1" tooltips="1" connect="1" arrows="1" fold="1" page="1" pageScale="1" pageWidth="827" pageHeight="1169" math="0" shadow="0">
      <root>
        <mxCell id="0" />
        <mxCell id="1" parent="0" />
        <mxCell id="1VG-6lsZDY0t3vp11iWN-4" value="Diagramma Caso D&#39;Uso &amp;nbsp;LOGIN" style="text;html=1;align=center;verticalAlign=middle;whiteSpace=wrap;rounded=0;fillColor=#fff2cc;strokeColor=#d6b656;" parent="1" vertex="1">
          <mxGeometry x="309" y="-1150" width="150" height="30" as="geometry" />
        </mxCell>
        <mxCell id="1VG-6lsZDY0t3vp11iWN-5" value="Direttore&lt;br&gt;Generale" style="shape=umlActor;verticalLabelPosition=bottom;verticalAlign=top;html=1;outlineConnect=0;" parent="1" vertex="1">
          <mxGeometry x="230" y="-1060" width="30" height="60" as="geometry" />
        </mxCell>
        <mxCell id="1VG-6lsZDY0t3vp11iWN-7" value="Responsabile &lt;br&gt;Vendite" style="shape=umlActor;verticalLabelPosition=bottom;verticalAlign=top;html=1;outlineConnect=0;" parent="1" vertex="1">
          <mxGeometry x="320" y="-1060" width="30" height="60" as="geometry" />
        </mxCell>
        <mxCell id="1VG-6lsZDY0t3vp11iWN-8" value="Magazziniere" style="shape=umlActor;verticalLabelPosition=bottom;verticalAlign=top;html=1;outlineConnect=0;" parent="1" vertex="1">
          <mxGeometry x="414" y="-1060" width="30" height="60" as="geometry" />
        </mxCell>
        <mxCell id="1VG-6lsZDY0t3vp11iWN-9" value="Commesso" style="shape=umlActor;verticalLabelPosition=bottom;verticalAlign=top;html=1;outlineConnect=0;" parent="1" vertex="1">
          <mxGeometry x="510" y="-1060" width="30" height="60" as="geometry" />
        </mxCell>
        <mxCell id="1VG-6lsZDY0t3vp11iWN-10" value="" style="endArrow=none;html=1;" parent="1" edge="1">
          <mxGeometry width="50" height="50" relative="1" as="geometry">
            <mxPoint x="380" y="-880" as="sourcePoint" />
            <mxPoint x="240" y="-960" as="targetPoint" />
          </mxGeometry>
        </mxCell>
        <mxCell id="1VG-6lsZDY0t3vp11iWN-12" value="" style="endArrow=none;html=1;" parent="1" edge="1">
          <mxGeometry width="50" height="50" relative="1" as="geometry">
            <mxPoint x="380" y="-880" as="sourcePoint" />
            <mxPoint x="340" y="-960" as="targetPoint" />
          </mxGeometry>
        </mxCell>
        <mxCell id="1VG-6lsZDY0t3vp11iWN-13" value="" style="endArrow=none;html=1;" parent="1" edge="1">
          <mxGeometry width="50" height="50" relative="1" as="geometry">
            <mxPoint x="380" y="-880" as="sourcePoint" />
            <mxPoint x="430" y="-960" as="targetPoint" />
          </mxGeometry>
        </mxCell>
        <mxCell id="1VG-6lsZDY0t3vp11iWN-14" value="" style="endArrow=none;html=1;" parent="1" edge="1">
          <mxGeometry width="50" height="50" relative="1" as="geometry">
            <mxPoint x="380" y="-880" as="sourcePoint" />
            <mxPoint x="520" y="-960" as="targetPoint" />
          </mxGeometry>
        </mxCell>
        <mxCell id="1VG-6lsZDY0t3vp11iWN-15" value="" style="endArrow=none;html=1;" parent="1" edge="1">
          <mxGeometry width="50" height="50" relative="1" as="geometry">
            <mxPoint x="380" y="-860" as="sourcePoint" />
            <mxPoint x="380" y="-880" as="targetPoint" />
          </mxGeometry>
        </mxCell>
        <mxCell id="1VG-6lsZDY0t3vp11iWN-16" value="" style="ellipse;whiteSpace=wrap;html=1;strokeColor=#000000;" parent="1" vertex="1">
          <mxGeometry x="320" y="-850" width="120" height="80" as="geometry" />
        </mxCell>
        <mxCell id="1VG-6lsZDY0t3vp11iWN-17" value="Login" style="text;html=1;strokeColor=none;fillColor=none;align=center;verticalAlign=middle;whiteSpace=wrap;rounded=0;fontStyle=1;fontSize=13;" parent="1" vertex="1">
          <mxGeometry x="360" y="-770" width="40" height="20" as="geometry" />
        </mxCell>
        <mxCell id="1VG-6lsZDY0t3vp11iWN-19" value="" style="endArrow=classic;html=1;exitX=0.5;exitY=1;exitDx=0;exitDy=0;dashed=1;entryX=0.467;entryY=0;entryDx=0;entryDy=0;entryPerimeter=0;" parent="1" source="1VG-6lsZDY0t3vp11iWN-17" target="1VG-6lsZDY0t3vp11iWN-21" edge="1">
          <mxGeometry width="50" height="50" relative="1" as="geometry">
            <mxPoint x="350" y="-730" as="sourcePoint" />
            <mxPoint x="380" y="-700" as="targetPoint" />
          </mxGeometry>
        </mxCell>
        <mxCell id="1VG-6lsZDY0t3vp11iWN-20" value="&lt;font style=&quot;font-size: 10px&quot;&gt;&amp;lt;&amp;lt;includes&amp;gt;&amp;gt;&lt;/font&gt;" style="text;html=1;align=center;verticalAlign=middle;resizable=0;points=[];autosize=1;" parent="1" vertex="1">
          <mxGeometry x="280" y="-740" width="80" height="20" as="geometry" />
        </mxCell>
        <mxCell id="1VG-6lsZDY0t3vp11iWN-21" value="" style="ellipse;whiteSpace=wrap;html=1;strokeColor=#000000;" parent="1" vertex="1">
          <mxGeometry x="324" y="-690" width="120" height="80" as="geometry" />
        </mxCell>
        <mxCell id="1VG-6lsZDY0t3vp11iWN-22" value="&lt;b&gt;Compila Form&lt;/b&gt;" style="text;html=1;align=center;verticalAlign=middle;resizable=0;points=[];autosize=1;fontSize=13;" parent="1" vertex="1">
          <mxGeometry x="330" y="-610" width="100" height="20" as="geometry" />
        </mxCell>
        <mxCell id="1VG-6lsZDY0t3vp11iWN-23" value="" style="ellipse;whiteSpace=wrap;html=1;strokeColor=#000000;fontSize=13;" parent="1" vertex="1">
          <mxGeometry x="194" y="-510" width="120" height="80" as="geometry" />
        </mxCell>
        <mxCell id="1VG-6lsZDY0t3vp11iWN-25" value="" style="ellipse;whiteSpace=wrap;html=1;strokeColor=#000000;fontSize=13;" parent="1" vertex="1">
          <mxGeometry x="194" y="-310" width="120" height="80" as="geometry" />
        </mxCell>
        <mxCell id="1VG-6lsZDY0t3vp11iWN-26" value="" style="endArrow=classic;html=1;dashed=1;fontSize=13;" parent="1" edge="1">
          <mxGeometry width="50" height="50" relative="1" as="geometry">
            <mxPoint x="260" y="-520" as="sourcePoint" />
            <mxPoint x="320" y="-580" as="targetPoint" />
          </mxGeometry>
        </mxCell>
        <mxCell id="1VG-6lsZDY0t3vp11iWN-27" value="" style="endArrow=classic;html=1;dashed=1;fontSize=13;" parent="1" edge="1">
          <mxGeometry width="50" height="50" relative="1" as="geometry">
            <mxPoint x="260" y="-390" as="sourcePoint" />
            <mxPoint x="260" y="-320" as="targetPoint" />
          </mxGeometry>
        </mxCell>
        <mxCell id="1VG-6lsZDY0t3vp11iWN-29" value="&lt;b&gt;Campo Email o password non validi&lt;/b&gt;" style="text;html=1;align=center;verticalAlign=middle;resizable=0;points=[];autosize=1;fontSize=13;" parent="1" vertex="1">
          <mxGeometry x="140" y="-420" width="240" height="20" as="geometry" />
        </mxCell>
        <mxCell id="1VG-6lsZDY0t3vp11iWN-30" value="&lt;div&gt;Compilazione del form&lt;/div&gt;&lt;div&gt;con dati corretti&lt;br&gt;&lt;/div&gt;" style="text;html=1;align=center;verticalAlign=middle;resizable=0;points=[];autosize=1;fontSize=13;fontStyle=1" parent="1" vertex="1">
          <mxGeometry x="174" y="-220" width="160" height="40" as="geometry" />
        </mxCell>
        <mxCell id="1VG-6lsZDY0t3vp11iWN-31" value="&lt;font style=&quot;font-size: 10px&quot;&gt;&amp;lt;&amp;lt;extends&amp;gt;&amp;gt;&lt;/font&gt;" style="text;html=1;align=center;verticalAlign=middle;resizable=0;points=[];autosize=1;" parent="1" vertex="1">
          <mxGeometry x="215" y="-560" width="70" height="20" as="geometry" />
        </mxCell>
        <mxCell id="1VG-6lsZDY0t3vp11iWN-32" value="&lt;font style=&quot;font-size: 10px&quot;&gt;&amp;lt;&amp;lt;includes&amp;gt;&amp;gt;&lt;/font&gt;" style="text;html=1;align=center;verticalAlign=middle;resizable=0;points=[];autosize=1;" parent="1" vertex="1">
          <mxGeometry x="260" y="-370" width="80" height="20" as="geometry" />
        </mxCell>
        <mxCell id="kFCxh8K0gUHKvD1JTlSK-1" value="" style="ellipse;whiteSpace=wrap;html=1;strokeColor=#000000;fontSize=13;" vertex="1" parent="1">
          <mxGeometry x="484" y="-514" width="120" height="80" as="geometry" />
        </mxCell>
        <mxCell id="kFCxh8K0gUHKvD1JTlSK-2" value="" style="ellipse;whiteSpace=wrap;html=1;strokeColor=#000000;fontSize=13;" vertex="1" parent="1">
          <mxGeometry x="484" y="-314" width="120" height="80" as="geometry" />
        </mxCell>
        <mxCell id="kFCxh8K0gUHKvD1JTlSK-3" value="" style="endArrow=classic;html=1;dashed=1;fontSize=13;" edge="1" parent="1">
          <mxGeometry width="50" height="50" relative="1" as="geometry">
            <mxPoint x="550" y="-524" as="sourcePoint" />
            <mxPoint x="460" y="-580" as="targetPoint" />
          </mxGeometry>
        </mxCell>
        <mxCell id="kFCxh8K0gUHKvD1JTlSK-4" value="" style="endArrow=classic;html=1;dashed=1;fontSize=13;" edge="1" parent="1">
          <mxGeometry width="50" height="50" relative="1" as="geometry">
            <mxPoint x="550" y="-394" as="sourcePoint" />
            <mxPoint x="550" y="-324" as="targetPoint" />
          </mxGeometry>
        </mxCell>
        <mxCell id="kFCxh8K0gUHKvD1JTlSK-5" value="Campi non compilati" style="text;html=1;align=center;verticalAlign=middle;resizable=0;points=[];autosize=1;fontSize=13;" vertex="1" parent="1">
          <mxGeometry x="485" y="-424" width="130" height="20" as="geometry" />
        </mxCell>
        <mxCell id="kFCxh8K0gUHKvD1JTlSK-6" value="&lt;div&gt;Compilazione di tutti&lt;/div&gt;&lt;div&gt;i campi del form&lt;br&gt;&lt;/div&gt;" style="text;html=1;align=center;verticalAlign=middle;resizable=0;points=[];autosize=1;fontSize=13;fontStyle=1" vertex="1" parent="1">
          <mxGeometry x="469" y="-224" width="150" height="40" as="geometry" />
        </mxCell>
        <mxCell id="kFCxh8K0gUHKvD1JTlSK-7" value="&lt;font style=&quot;font-size: 10px&quot;&gt;&amp;lt;&amp;lt;extends&amp;gt;&amp;gt;&lt;/font&gt;" style="text;html=1;align=center;verticalAlign=middle;resizable=0;points=[];autosize=1;" vertex="1" parent="1">
          <mxGeometry x="505" y="-564" width="70" height="20" as="geometry" />
        </mxCell>
        <mxCell id="kFCxh8K0gUHKvD1JTlSK-8" value="&lt;font style=&quot;font-size: 10px&quot;&gt;&amp;lt;&amp;lt;includes&amp;gt;&amp;gt;&lt;/font&gt;" style="text;html=1;align=center;verticalAlign=middle;resizable=0;points=[];autosize=1;" vertex="1" parent="1">
          <mxGeometry x="469" y="-370" width="80" height="20" as="geometry" />
        </mxCell>
      </root>
    </mxGraphModel>
  </diagram>
</mxfile>
